# xmcd
#
# Track frame offsets:
#	150
#	18047
#	31360
#	49370
#	72000
#	110902
#	125510
#	142345
#	169257
#	182897
#	199112
#	214890
#	230742
#	245695
#	261695
#
# Disc length: 3715
#
# Revision: 2
# Processed by: cddbd v1.5.1PL0 Copyright (c) Steve Scherf et al.
# Submitted via: CDValet v3.31 - Copyright (c) 1997 Greg Leichner
# Normalized: r1:DSETVAR1,TDELIM( - )
#
DISCID=f40e810f
DTITLE=Various Artist - Peep! -RTL2 päsentiert-
DYEAR=1900
DGENRE=
TTITLE0=Amanda Lear - Peep
TTITLE1=Dr. Hook - Sexy Eyes
TTITLE2=Marvin Gaye - Sexual Healing
TTITLE3=The Flirts - Passion
TTITLE4=Divine - Shoot Your Shot
TTITLE5=Pierre Bachelet - Emmanuelle
TTITLE6=Ian Dury - Hit Me With Your Rhythm Stick
TTITLE7=Imagination - Body Talk
TTITLE8=Shocking Blue - Venus
TTITLE9=Shaka Zulu - Mr. Loverman
TTITLE10=Ru Paul - House Of Love
TTITLE11=Marilyn Monroe - Swing Marilyn Swing Medley
TTITLE12=Tatjana - Don´t You Want Me
TTITLE13=Jacquie Virgil - Man Needs A Woman
TTITLE14=Wilhelmina - Stay
EXTD=
EXTT0=
EXTT1=
EXTT2=
EXTT3=
EXTT4=
EXTT5=
EXTT6=
EXTT7=
EXTT8=
EXTT9=
EXTT10=
EXTT11=
EXTT12=
EXTT13=
EXTT14=
PLAYORDER=
